<svg viewBox="0 0 112.8 71.3" xmlns="http://www.w3.org/2000/svg"><path d="m112.7 66.3c0 2.8-2.3 5-5.1 5l-102.6-.2c-2.8 0-5-2.3-5-5.1l.1-61c0-2.8 2.3-5 5-5l102.6.2c2.8 0 5 2.3 5 5.1z" fill="#00a728"/><g fill="#006436"><path d="m40.1 18.4-5.3-10.4c-1.2-2.3-3.5-3.7-6.2-3.7-1 0-2.1.2-3 .7-.9.4-1.8 1.1-2.4 1.9-1.3-1.6-3.3-2.6-5.4-2.6-1 0-2.1.2-3 .7-1.6.7-2.6 2.2-3.5 3.9-.2.4-5 9.6-5 9.6-.9 1.7-1 3.7-.4 5.5.6 1.7 1.9 3.2 3.5 3.9 1 .4 2 .7 3 .7 2.1 0 4.1-.9 5.4-2.5 1.3 1.6 3.3 2.5 5.4 2.5 1 0 2.1-.2 3-.7.9-.4 1.8-1.1 2.4-1.9 1.3 1.6 3.3 2.6 5.4 2.6 1 0 2.1-.2 3-.7 1.6-.7 2.9-2.2 3.5-3.9.6-1.9.5-3.9-.4-5.6"/><path d="m61.3 34.2c.4-.4.6-.9.8-1.4.1-.2.2-.6.3-.9v-.1c.8-2.1-.4-4.6-2.6-5.5-1.1-.4-3-1.1-5.7-1.1h-.2c-4.1 0-6.7 1.8-8.1 4-1.8-1.9-3.8-3-6.4-3.4-.3-.1-.7-.1-1.2-.1h-2.5c-.3 0-.6.1-.7.1-2.8.5-4.8 1.6-6.6 3.7-.1.1-.3.3-.4.5 0-.2-.1-.4-.1-.4-.3-2.1-2.2-3.6-4.3-3.6h-2.4c-1.7 0-3.3 1-4 2.6-.7-1.6-2.2-2.6-4-2.7h-2.4c-2.1 0-4 1.5-4.3 3.7-1.9 12.2-2 13.1-2 13.1-.2 1.3.1 2.6.9 3.5s1.9 1.5 3.1 1.5h1.8c1.4 0 2.5-.5 3.3-1.5.8.9 1.9 1.5 3.1 1.5h1.3c.8 0 2.1-.2 3.1-1.4.8.9 1.9 1.5 3.2 1.5h1.8c1.2 0 2.4-.5 3.1-1.4.2-.2.4-.5.5-.8 1.5 1.3 3.2 2.1 5.4 2.5.3 0 .7.1 1.1.1h.9c.9 0 1.5 0 2.1-.1 2.9-.4 4.6-1.7 5.9-2.8.4.5.9 1 1.6 1.3 1.1.5 3.9 1.9 7 1.9 7.4 0 10.1-4.6 10.1-8.5 0-2-.5-3.3-1.6-4.7-.2-.5-.5-.8-.9-1.1"/><path d="m66.3 44.8h-4.7c-1.7 0-3.2 1-3.9 2.4-1.6-1.6-3.7-2.4-6.4-2.4h-5.4c-2.4 0-4.4 1.9-4.4 4.4v3.2l-1.6-4.1c-.8-2-2.8-3.5-4.9-3.5h-2.8c-2.1 0-4.1 1.4-4.9 3.5l-.7 1.7c-.3-1-.9-1.7-1.2-2.1-1.4-1.6-4.2-3.6-9.1-3.6-6.7 0-11.5 4.8-11.5 11.4.1 6.4 4.9 11.3 11.5 11.3 3 0 5.2-.7 6.8-1.6.7.7 1.7 1.2 2.8 1.2h1.9c2.5 0 3.8-1.2 4.5-2.5h2.6c.7 1.3 1.9 2.5 4.5 2.6h1.9c.8 0 1.6-.2 2.2-.7.7.4 1.4.7 2.3.7h1.4c1.2 0 2.4-.5 3.1-1.3.9.9 2.1 1.4 3.1 1.4h1.8c1.2 0 2.3-.5 3.1-1.3.8.8 1.9 1.3 3.1 1.3h4.7c5.9 0 11.9-3.3 11.9-10.9.1-7.7-5.8-11.1-11.7-11.1"/></g><path d="m39 28.4c-.3-.1-.6-.1-.9-.1h-1.8c-.3 0-.6.1-.7.1-2.3.4-3.7 1.3-5.1 2.9-1.3 1.5-2 3.4-2 5.6s.6 4.1 2 5.6c1.3 1.6 2.8 2.5 5 2.9.3 0 .6.1.8.1h.8c.7 0 1.2 0 1.7-.1 2-.3 3.2-1 4.5-2.2 1.2-1.1 2.1-2.6 2.4-4.4.1-.7.2-1.3.2-2 0-2.2-.7-4-2-5.5-1.2-1.6-2.8-2.5-4.9-2.9m1.5 8.8c0 .1 0 .2-.1.4-.1 1-.5 1.7-1.1 2.3s-1.2.9-2.1.9c-1 0-1.6-.3-2.3-1.1-.6-.7-1-1.6-1-2.7s.3-2 1-2.7 1.3-1.1 2.3-1.1 1.7.4 2.3 1.1c.7.7 1 1.6 1 2.6zm-15-7.2c-.1-.8-.9-1.4-1.7-1.4h-2.4c-.7 0-1.4.5-1.6 1.2l-2.4 7.6-2.4-7.6c-.2-.7-.8-1.2-1.6-1.2h-2.4c-.9 0-1.5.7-1.7 1.4l-2.2 13.1c-.1.9.4 1.9 1.4 1.9h1.8c.9 0 1.5-.5 1.7-1.5s1-7.2 1-7.2 2 7 2.3 7.6.8 1.2 1.5 1.2h1.3c.8 0 1.2-.4 1.5-1.2.3-.7 2.3-7.5 2.3-7.5s.7 6.4.9 7.3.8 1.4 1.7 1.4h1.8c1 0 1.6-.9 1.4-1.9-.1-.1-2.2-13.2-2.2-13.2m-9 21.2c1.6 0 2.2.4 2.9 1 .6.5.7.8 1.6.5.6-.2 2.4-.9 2.4-.9.3-.1.7-.3.8-.9.1-.5-.3-1-.7-1.4-1.1-1.3-3.2-2.7-7.1-2.7-5.1 0-8.8 3.6-8.8 8.7s3.7 8.7 8.8 8.8c3.9 0 6-1.4 7.1-2.7.4-.5.8-.9.7-1.4-.1-.6-.5-.8-.8-.9 0 0-1.8-.8-2.4-1-.8-.3-1 0-1.6.5-.7.7-1.4 1-2.9 1-2.1 0-3.5-1.9-3.5-4.3s1.4-4.3 3.5-4.3m20.9-2.1c-.4-.9-1.4-1.7-2.4-1.7h-2.7c-.9 0-2 .8-2.4 1.7l-5 13c-.4 1 .2 1.7 1.1 1.7h1.9c1.4 0 1.9-.5 2.4-1.7l.3-.8h6.2l.3.8c.5 1.3 1 1.8 2.4 1.8h1.9c.9 0 1.4-.7 1.1-1.7zm-5.4 8.4 1.6-4.2 1.6 4.2zm19.3-10.1h-5.4c-.9 0-1.7.8-1.7 1.7v13c0 1 .8 1.7 1.7 1.7h1.4c.9 0 1.7-.8 1.7-1.7v-5s2.7 5.1 3.1 5.9c.4.7 1.2.9 1.5.9h1.8c1.4 0 2.1-1.5 1.4-2.6-.6-1.1-2.7-4.5-2.7-4.5s2.9-.6 3.3-3.4c.1-1.3-.2-2.9-1.1-4-1.2-1.2-2.6-2-5-2m-.9 7.7h-1.4v-3.7h1.2c1.2 0 2 .5 2 1.8 0 .8-.3 1.9-1.8 1.9m5.3-20.3c-1.5-.4-2.7-.9-2.9-1.5s.2-1.2 1-1.4c.6 0 .9 0 1.8.3.7.2 1.2.5 1.6.7s.9.2 1.3 0c.6-.2.9-.6 1-1 .1-.3.3-1 .3-1.1.3-.7-.2-1.7-1-2-1-.4-2.6-1-4.9-1-4.6 0-6.6 2.7-6.6 5.5 0 2.1 2 3.7 4 4.5 2.4 1 4.6 1 4.6 2.3 0 .9-1 1.4-2.1 1.3-.4 0-1.7-.4-2.7-.9-.6-.3-.9-.5-1.1-.6-.3-.2-.7-.3-1.2-.2-.6.1-1 .6-1.2.9-.2.4-.4.8-.5 1.1-.2.3-.3.9 0 1.3.2.5.5.7.8.9.9.4 3.3 1.6 5.8 1.6 6.2 0 7.4-3.6 7.4-5.8 0-1.5-.3-2.2-1-3.1-.6-.7-2.4-1.3-4.4-1.8m10.5 12.7h-4.6c-.9 0-1.7.8-1.7 1.7v13c0 1 .8 1.7 1.7 1.7h4.7c4.5 0 9.2-2.3 9.2-8.2-.1-5.9-4.7-8.2-9.3-8.2m-.1 12.5h-1.2v-8.6h1.2c1.8 0 3.9.7 3.9 4.3s-2.1 4.3-3.9 4.3m-39.2-40.4c1.1 2.3.1 4.8-1.9 5.7-2.2 1-4.7.1-5.7-1.8l-5.3-10.5c-1.1-2.2-.1-4.8 1.9-5.7 2.2-1 4.7-.1 5.7 1.8zm10.8 0c1.1 2.3.1 4.8-1.9 5.7-2.2 1-4.7.1-5.7-1.9l-5.3-10.4c-1.2-2.2-.1-4.8 1.8-5.7 2.2-1 4.7-.1 5.7 1.9zm-20.7 2.1c-1.4-2.8-4.1-8.1-4.1-8.1-.2-.4-.4-.9-.5-1.4l-3.8 7.4c-1.2 2.2-.2 4.8 1.8 5.7 2.2 1 4.7.2 5.7-1.8z" fill="#fff"/></svg>