<svg viewBox="0 0 360.2 272.8" xmlns="http://www.w3.org/2000/svg"><path d="m348.6 204.2 11.6-204.2-289.5 7.8 6.5 200.4 100.3-1.4-1.1 28.7-20.4 1.2-10.3 14.2h138.3l-16.8-20.7-19.1 1.1v-25.5zm-249-15-2.6-159.2 240.6-2.6-2.6 161.8z" fill="#64321b"/><path d="m139.6 128-46.5 144.8-93.1-28.5 38.8-147.4z" fill="#e5912e"/><path d="m17.3 221.3 72.2 21.6 33.4-107-74.8-21.6z" fill="#fff"/><path d="m44.6 243.1c-1 3.5 1 7.3 4.6 8.3 3.5 1 7.2-1 8.3-4.6 1-3.5-1-7.3-4.6-8.3s-7.3 1-8.3 4.6z" fill="#64321b"/><path d="m176.2 91.6-.2 12.3 72 .2-.1-12.9z" fill="#d7000f"/><path d="m182.6 133.5c-3.6 0-10.3-1.8-10-6.4.4-4.6 3-6.4 10.8-6.4h59c4.8 0 8.8 2.9 8.8 7 0 4.7-4.3 6.1-8.8 6.1-4.5-.1-49.1-.3-59.8-.3" fill="#64321b"/><path d="m178.3 123.6c3.9-2.5 7.6-2.8 10.8-.6 6 4.1 11.1 4.1 16.4.6 4.8-3.1 9.5-3.1 14.3-.4 5.8 3.3 9.9 4.6 15.6.2 4.3-3.3 7.8-2.9 11.3.2 6.7 6.1 12.1-3 6-5.8-7.6-3.6-20.8-5.3-38.7-5.3-18 0-40.5 1.2-43.4 3.7-5.5 4.8.5 12 7.7 7.4" fill="#fbe2cc"/><path d="m234.5 154.7c11.8-.6 16.1-2.4 18.5-8.4 1.2-3.1.6-6.1-.8-8.9l-79.8-.4c-1.5 3.6-2 8 1.4 12 1.5 1.8 5.6 4.4 12.5 5.1 13.3 1.5 36 1.3 48.2.6m-14.7-94.9c-21.3-4.5-38.1 2.8-43.4 12.2-2.3 4.1-2.6 7.8-1.7 10.6l77.1 14.4c1.8-3.5 3.2-7.5 1.4-13.8-2.3-7.9-13.8-19.3-33.4-23.4" fill="#e5912e"/><path d="m249.1 119.3c7.2 2.1 12.1-.6 11.7-5.1-.5-5.1-6.8-7-12.1-4.3s-8.8 2.4-12.4-.2c-4.9-3.5-11.1-3.2-16.3 0-5 3.1-8.9 3.6-14.1.3-6.4-3.9-11.9-3.5-17.8 0-3.6 2.2-7.2 2-11.8-.5-6-3.2-12.3-.3-12.4 4.8-.1 5 6.9 6.9 12.8 4.1 1.1-.5 6.3-2.9 11.2-.1 6.9 4 12.6 4.2 19.1-.1 3.4-2.3 7.7-2.6 12.7.6 5.7 3.6 12.9 3.1 17.2.2 5.2-3.3 8.7-.7 12.2.3" fill="#c34503"/><path d="m277.5 118.7-1 40.5 11.5-4.9 9.7 20.2 13.4-5.7-11.5-19.3 9.6-5.7z" fill="#006436"/><path d="m64.6 175.7-6.6-2.1 6.9-21.6h6.8zm12.4 2.3-6.9-1.5 6.8-21 7.2-.2zm10.2 9.1-7.6-2.2 6.9-19.2 7.6-.2z" fill="#e5912e"/><path d="m59.4 174.7-7-2 5.8-16.2 6.7.1zm10.5 4.6-7.1-2.3 6.2-18.5 7.8-.4zm12 3.1-6.6-2.1 6.8-21.6h7.6z" fill="#ffc800"/><path d="m91.2 179.9-9.3 29.8-39.2-12.5 9.8-29.6z" fill="#fbe2cc"/><path d="m89.5 186-39.7-12.1-.6 1.9 39.6 12.5z" fill="#d7000f"/></svg>