<svg viewBox="0 0 156.2 113" xmlns="http://www.w3.org/2000/svg" xmlns:xlink="http://www.w3.org/1999/xlink"><clipPath id="a"><path d="m7.3 67.7-.2 35.7 98.4-.3-.3-35.7z"/></clipPath><path d="m0 63.1 112.9-.3-11-35-92.1 1z" fill="#006436"/><path d="m7.3 67.7-.2 35.7 98.4-.3-.3-35.7z" fill="#fbe2cc"/><path clip-path="url(#a)" d="m47.2 77.3.3 30.2h19.8l-.4-30.1z" fill="#64321b"/><path d="m29.8 77.4.1 5.9h8v-6z" fill="#64321b"/><path d="m11.5 18.4-.1 6.4 14-.1-.1-6.4zm76.3.1-.1 6.3 13.7-.1-.1-6.4z" fill="#006436"/><path d="m30 85-.2 6.2h8v-6.3zm-3.3 6.1-.1-6.2-8.2-.1.2 6.4zm-.2-8.1.2-5.7-8.5.1.2 5.8zm49-5.5.1 5.9 8.7-.1-.1-5.9zm.3 8.4.1 5.9 8.3-.2-.1-5.9zm19.9 5.9-.1-5.8-8.3.1v5.7zm0-8.5v-5.9l-8.4.2.2 5.7z" fill="#64321b"/><path d="m84.6 59.3h-56.7v-19.3l56.7-.3z" fill="#fff"/><path d="m82.3 53.3-52.1.2-.4-11.3 52.5-.4z" fill="#00a728"/><path d="m82.5 57.5-52.5.1.1-2.8 52.4-.3z" fill="#e90000"/><path d="m70.6 44-4.7-9.2c-.9-1.8-2.8-2.9-4.9-2.9-.8 0-1.6.2-2.4.5-1 .4-1.8 1.2-2.3 2.2-1-1.7-2.8-2.7-4.8-2.7-.8 0-1.6.2-2.4.5-.5.2-1 .6-1.4 1l-.2-.4-.7 1.4c-.1.1-.1.3-.2.4l-4.7 9.2c-.7 1.4-.8 2.9-.3 4.4.5 1.4 1.5 2.5 2.8 3.1.8.3 1.6.5 2.4.5 2 0 3.8-1 4.7-2.6 1 1.6 2.8 2.6 4.7 2.6.8 0 1.6-.2 2.4-.5 1-.4 1.8-1.2 2.3-2.2 1 1.7 2.8 2.7 4.8 2.7.8 0 1.6-.2 2.4-.5 1.3-.6 2.3-1.7 2.8-3.1.5-1.5.4-3-.3-4.4" fill="#006436"/><path clip-rule="evenodd" d="m59.5 44.8c1 2 .1 4.2-1.6 5-.5.2-1.1.4-1.6.4-1.4 0-2.7-.7-3.4-2l-4.7-9.2c-1-2-.1-4.2 1.6-5 1.9-.9 4.1-.1 5 1.6zm9.5 0c1 2 .1 4.2-1.6 5-1.9.9-4.1.1-5-1.6l-4.7-9.2c-1-2-.1-4.2 1.6-5 1.9-.9 4.1-.1 5 1.6zm-18.1 1.9c-1.3-2.5-3.7-7.1-3.7-7.1-.2-.4-.3-.8-.4-1.2l-3.3 6.5c-1 2-.1 4.2 1.6 5 1.9.9 4.1.1 5-1.6z" fill="#fff" fill-rule="evenodd"/><path d="m137.7 78.9-5.5 2.9-9.9-19.1 5.5-2.6z" fill="#c34503"/><path d="m156.2 107.3-11.2 5.7-19.5-37 11.7-5.7zm-11.1-87.7c9.4 17.5 1.5 38.7-16.1 48-17.5 9.4-40.7 3.3-50-14.2-9.4-17.5-3.4-38.6 15.3-49 18.1-9.9 41.4-2.3 50.8 15.2" fill="#64321b"/><path d="m113.7 65.5c-16.5 1.3-31-10.7-32.3-27.2s11-30.8 27.5-32.1 31.1 9.5 33 27.3c1.6 15.3-9.1 30.4-28.2 32" fill="#fff"/></svg>