<svg viewBox="0 0 122.8 107.4" xmlns="http://www.w3.org/2000/svg"><path d="m9.9 59.2-2.5 6.5 7.1 37.3 5.4 4.4 39.5-8.2 3.3-6.8-7.5-36.4-6.3-4.1zm112.7 9.5c-1.6 13.7-15.1 25.8-29.1 23.1-14.7-2.8-24.7-15.1-23.1-29.1 1.7-14.4 14.7-24.7 29.1-23.1 14.4 1.7 24.8 14.7 23.1 29.1z" fill="#e5912e"/><path d="m118.4 68.3c-1.4 12.1-12.3 20.7-24.4 19.4-12.1-1.4-20.8-12.3-19.4-24.4 1.4-12.2 12.3-20.9 24.4-19.5s20.8 12.4 19.4 24.5z" fill="#fff"/><path d="m99.9 66.1c-.2 1.9-1.9 3.2-3.8 3s-3.2-1.9-3-3.8 1.9-3.2 3.8-3c1.9.3 3.2 2 3 3.8z" fill="#64321b"/><path d="m98.1 63.3-3.4-.2.1-17 3.4-.1zm-4.4 3.7 2 1.8-8.3 9-1.6-1.4z" fill="#64321b"/><path d="m65.3 13.8-5.5-13.8-32.4 1.3-2.8 17-24.6 1.9 1.4 4.5 3.8-.3.3 4.5-2.8.2 2.3 7.2 79-8.2-.4-14.6zm-22.5 2.6-13.7 1.4 1.9-11.8 12.1-.9zm4.3-.5.4-11.2 9.1-.7 3.6 10.5z" fill="#e5912e"/><path d="m25.5 32.9c.3 3.7-3.1 6.6-6.8 6.9-3.7.2-6.4-2.2-6.7-5.9s2-7.1 5.7-7.4 7.5 2.7 7.8 6.4zm36.6-9.7c3.5-1.3 7.7.8 9 4.3s-.8 7-4.3 8.3-7-.1-8.3-3.6c-1.2-3.5.2-7.7 3.6-9z" fill="#64321b"/><g fill="#fff"><path d="m18.6 80.2-4.1-3.4 9.3-8.6 16.5-4.6 12.9 6.8-2.7 3.4-10.7-5.2-13.7 3.1z"/><path d="m25.6 84.9-3.3-2.1 4.9-7.1 12.1-3 9.7 3.7-2.8 3.4-7.4-3-9.1 2.2z"/><path d="m32.1 88.5-3.2-2.2 6.4-4.9 8.2 1.7-1.4 2.9-5.8-.7zm9.5 3.6c.1 1.7-1.5 3.1-3.2 3.2s-3-1-3.1-2.8c-.1-1.7.9-3.3 2.7-3.5 1.6 0 3.4 1.3 3.6 3.1z"/></g></svg>