<svg viewBox="0 0 259.9 36.6" xmlns="http://www.w3.org/2000/svg"><path d="m21.4 8.8c-.3-6.2-5-8.8-11-8.8-4.5 0-9.6 2.1-9.6 7.6 0 5.4 4.9 6.6 9.7 7.6 4.9 1 9.8 1.8 9.8 6.7 0 5-4.8 6.5-8.3 6.5-5.6 0-10.6-2.4-10.3-8.6h-1.7c-.1 7.4 5.4 10.1 12 10.1 4.4 0 10-2.1 10-8 0-5.7-4.9-6.9-9.8-7.9-4.8-1-9.7-1.8-9.7-6.4 0-4.7 4.6-6.1 7.8-6.1 5.3 0 9 2.4 9.2 7.3zm5.7-8.1v28.6h1.5v-11.2c0-5 2.8-8.6 7.4-8.6 5.6 0 5.8 4.6 5.8 6.7v13h1.5v-12.7c0-2.5-.1-8.3-7.3-8.3-3.2 0-6.3 1.8-7.4 4.9h-.1v-12.4zm21 18.3c0 5.8 3.4 10.8 9.4 10.8s9.5-5 9.5-10.8-3.4-10.8-9.4-10.8-9.5 4.9-9.5 10.8zm1.5 0c0-4.9 2.8-9.4 7.9-9.4s7.9 4.5 7.9 9.4-2.8 9.4-7.9 9.4-7.9-4.5-7.9-9.4zm31.6 9.4c-5.8 0-7.5-4.5-7.5-9.4s2-9.5 7.5-9.5 7.7 4.8 7.7 9.5c0 5.1-2.4 9.4-7.7 9.4zm-7.6-19.7h-1.5v27.9h1.5v-11.6h.1c1.2 3.3 4.1 4.8 7.5 4.8 6.3 0 9.2-4.5 9.2-10.7 0-5.8-2.9-10.8-9.2-10.8-4.5 0-6.8 3.2-7.5 5.2h-.1zm20.4 21.2 12.8-29.9h-1.6l-12.8 29.9zm37.2-21.1c-.3-6.3-5-8.8-10.9-8.8-4.5 0-9.6 2.1-9.6 7.6 0 5.4 4.9 6.6 9.7 7.6 4.9 1 9.8 1.8 9.8 6.7 0 5-4.8 6.5-8.3 6.5-5.6 0-10.6-2.4-10.3-8.6h-1.8c-.1 7.4 5.4 10.1 12 10.1 4.4 0 10-2.1 10-8 0-5.7-4.9-6.9-9.8-7.9-4.8-1-9.7-1.8-9.7-6.4 0-4.7 4.6-6.1 7.8-6.1 5.3 0 9 2.4 9.2 7.3zm22.9 10.4c.3-5.9-2.6-11-9-11-6.2 0-9.2 5.5-9.1 11.1-.1 5.7 3.1 10.4 9.1 10.4 4.9 0 8.1-2.6 8.9-7.4h-1.5c-.7 3.8-3.5 6.1-7.4 6.1-5.1 0-7.6-4.4-7.6-9.2zm-16.6-1.4c.3-4.1 3-8.3 7.6-8.3 4.7 0 7.4 4 7.5 8.3zm22.9-9.1h-1.5v20.6h1.5v-11.3c.2-3.1.8-4.4 2.3-5.9 1.8-1.8 4.1-2.2 5.7-2v-1.5c-3.7-.2-7.1 2-7.9 4.7h-.1zm28.8 0h-1.7l-7 18.8h-.1l-7.4-18.8h-1.8l8.3 20.6h1.9zm5.2 20.5v-20.5h-1.5v20.6h1.5zm0-24.4v-4.1h-1.5v4.1zm23 10.2c-.4-4.7-4-6.8-8.5-6.8-6.1 0-9.4 4.8-9.4 10.6 0 5.7 2.8 11 9.4 11 4.4 0 8-2.8 8.7-7.7h-1.5c-.5 3.8-3.3 6.4-7.2 6.4-5.3 0-7.9-4.1-7.9-9.6 0-4.7 2.8-9.2 7.9-9.2 3.7 0 6.7 1.9 7 5.5h1.5zm22.2 4.2c.3-5.9-2.6-11-9-11-6.2 0-9.2 5.5-9.1 11.1-.1 5.7 3.1 10.4 9.1 10.4 4.9 0 8.1-2.6 8.9-7.4h-1.5c-.7 3.8-3.5 6.1-7.4 6.1-5.1 0-7.6-4.4-7.6-9.2zm-16.6-1.4c.3-4.1 3-8.3 7.6-8.3 4.7 0 7.4 4 7.5 8.3zm20.6 4.6c.1 4.8 3.6 7.3 8.3 7.3 3.6 0 8-1.2 8-5.7 0-4.3-3.2-5.3-7.3-6-3.3-.7-6.8-1.2-6.8-4.5 0-2.9 3.1-4 5.9-4 3.4 0 6 1.5 6.1 5.2h1.5c0-4.7-3.2-6.6-7.6-6.6-3.5 0-7.4 1.2-7.4 5.3 0 4.2 3.5 5.1 7.1 5.8 3.5.7 7 1.2 7 4.7 0 3.6-3.8 4.4-6.5 4.4-3.7 0-6.6-2.2-6.8-6h-1.5z"/></svg>