<svg viewBox="0 0 202.8 35.9" xmlns="http://www.w3.org/2000/svg"><path d="m0 28.6h1.8v-26.4h.1l18.1 26.4h2.1v-28.6h-1.8v26.2h-.1l-18-26.2h-2.2zm45.2-10.1c.3-5.9-2.6-11-9-11-6.2 0-9.2 5.5-9.1 11.1-.1 5.7 3.1 10.4 9.1 10.4 4.9 0 8.1-2.6 8.9-7.4h-1.5c-.7 3.8-3.5 6.1-7.4 6.1-5.1 0-7.6-4.4-7.6-9.2zm-16.6-1.3c.3-4.1 3-8.3 7.6-8.3 4.7 0 7.4 4 7.5 8.3zm20.7-9.2h-1.6l6.5 20.6h1.9l5.7-18.6h.1l5.6 18.6h1.9l6.6-20.6h-1.7l-5.8 18.8h-.1l-5.6-18.8h-2l-5.6 18.8h-.1zm49.6-6.5v27h1.8v-27h10.1v-1.5h-21.9v1.5zm11.4 16.8c0 5.8 3.4 10.8 9.4 10.8s9.4-4.9 9.4-10.8c0-5.8-3.4-10.8-9.4-10.8s-9.4 4.9-9.4 10.8zm1.5 0c0-4.9 2.8-9.4 7.9-9.4 5.2 0 7.9 4.5 7.9 9.4s-2.8 9.4-7.9 9.4-7.9-4.5-7.9-9.4zm31.6 9.4c-5.8 0-7.5-4.5-7.5-9.4s2-9.5 7.5-9.5 7.7 4.8 7.7 9.5c0 5.1-2.4 9.4-7.7 9.4zm-7.6-19.7h-1.5v27.9h1.5v-11.6h.1c1.2 3.3 4.1 4.8 7.5 4.8 6.3 0 9.2-4.5 9.2-10.7 0-5.8-2.9-10.8-9.2-10.8-4.5 0-6.8 3.2-7.5 5.2h-.1zm23.4 20.6v-20.6h-1.5v20.6zm0-24.5v-4.1h-1.5v4.1zm23.1 10.3c-.4-4.7-4-6.8-8.5-6.8-6.1 0-9.4 4.8-9.4 10.6 0 5.7 2.8 11 9.4 11 4.4 0 8-2.8 8.7-7.7h-1.5c-.5 3.8-3.3 6.4-7.2 6.4-5.3 0-7.9-4.1-7.9-9.6 0-4.7 2.8-9.2 7.9-9.2 3.7 0 6.7 1.9 7 5.5h1.5zm4.1 7.3c.1 4.8 3.6 7.3 8.3 7.3 3.6 0 8-1.2 8-5.7 0-4.3-3.2-5.3-7.3-6-3.3-.7-6.8-1.2-6.8-4.5 0-2.9 3.1-4 5.9-4 3.4 0 6 1.5 6.1 5.2h1.5c0-4.7-3.2-6.6-7.6-6.6-3.5 0-7.4 1.2-7.4 5.3 0 4.2 3.5 5.1 7.1 5.8 3.5.7 7 1.2 7 4.7 0 3.6-3.8 4.4-6.5 4.4-3.7 0-6.6-2.2-6.8-6h-1.5z"/></svg>