<svg xmlns="http://www.w3.org/2000/svg" viewBox="0 0 52.8 52"><style/><g id="レイヤー_1のコピー"><path d="M26.4 52C11.8 52 0 40.4 0 26S11.8 0 26.4 0s26.4 11.7 26.4 26S41 52 26.4 52zm0-50C12.9 2 2 12.8 2 26s10.9 24 24.4 24 24.4-10.8 24.4-24S39.9 2 26.4 2z"/><path d="M26.4 44.5C11.8 44.5 0 36.2 0 26S11.8 7.5 26.4 7.5 52.8 15.8 52.8 26 41 44.5 26.4 44.5zm0-35C12.9 9.5 2 16.9 2 26s10.9 16.5 24.4 16.5S50.8 35.1 50.8 26 39.9 9.5 26.4 9.5z"/><path d="M26.4 34.9C13.6 34.9 0 31.8 0 26s13.6-8.9 26.4-8.9 26.4 3.1 26.4 8.9-13.6 8.9-26.4 8.9zm0-15.8C12 19.1 2 22.8 2 26s10 6.9 24.4 6.9 24.4-3.6 24.4-6.9-10-6.9-24.4-6.9z"/><path d="M26.4 52C16 52 7.6 40.4 7.6 26S16 0 26.4 0s18.8 11.7 18.8 26-8.4 26-18.8 26zm0-50C17.1 2 9.6 12.8 9.6 26s7.5 24 16.8 24 16.8-10.8 16.8-24S35.7 2 26.4 2z"/><path d="M26.4 52c-5.3 0-8.1-13.4-8.1-26s2.8-26 8.1-26 8.1 13.4 8.1 26-2.8 26-8.1 26zm0-50c-2.6 0-6.1 9.1-6.1 24s3.6 24 6.1 24 6.1-9.1 6.1-24S29 2 26.4 2z"/></g></svg>