<svg viewBox="0 0 52.8 52" xmlns="http://www.w3.org/2000/svg"><g fill="#fff"><path d="m26.4 52c-14.6 0-26.4-11.6-26.4-26s11.8-26 26.4-26 26.4 11.7 26.4 26-11.8 26-26.4 26zm0-50c-13.5 0-24.4 10.8-24.4 24s10.9 24 24.4 24 24.4-10.8 24.4-24-10.9-24-24.4-24z"/><path d="m26.4 44.5c-14.6 0-26.4-8.3-26.4-18.5s11.8-18.5 26.4-18.5 26.4 8.3 26.4 18.5-11.8 18.5-26.4 18.5zm0-35c-13.5 0-24.4 7.4-24.4 16.5s10.9 16.5 24.4 16.5 24.4-7.4 24.4-16.5-10.9-16.5-24.4-16.5z"/><path d="m26.4 34.9c-12.8 0-26.4-3.1-26.4-8.9s13.6-8.9 26.4-8.9 26.4 3.1 26.4 8.9-13.6 8.9-26.4 8.9zm0-15.8c-14.4 0-24.4 3.7-24.4 6.9s10 6.9 24.4 6.9 24.4-3.6 24.4-6.9-10-6.9-24.4-6.9z"/><path d="m26.4 52c-10.4 0-18.8-11.6-18.8-26s8.4-26 18.8-26 18.8 11.7 18.8 26-8.4 26-18.8 26zm0-50c-9.3 0-16.8 10.8-16.8 24s7.5 24 16.8 24 16.8-10.8 16.8-24-7.5-24-16.8-24z"/><path d="m26.4 52c-5.3 0-8.1-13.4-8.1-26s2.8-26 8.1-26 8.1 13.4 8.1 26-2.8 26-8.1 26zm0-50c-2.6 0-6.1 9.1-6.1 24s3.6 24 6.1 24 6.1-9.1 6.1-24-3.5-24-6.1-24z"/></g></svg>