<svg xmlns="http://www.w3.org/2000/svg" viewBox="0 0 69.2 55.8"><path d="M32.7 11.3H15.1c-7.1 0-13 3.2-13 7.1v7.1h43.6v-7.1c-.1-3.9-5.9-7.1-13-7.1zM2.1 38.4h43.5V43H2.1zm37 8.6h-37v3.9c0 2.1 2.9 3.9 6.5 3.9h30.6c3.6 0 6.5-1.8 6.5-3.9V47h-6.6zM1 33.1c2.8 0 2.8-2.6 5.7-2.6 2.8 0 2.8 2.6 5.7 2.6 2.8 0 2.8-2.6 5.7-2.6 2.8 0 2.8 2.6 5.7 2.6 2.8 0 2.8-2.6 5.7-2.6 2.8 0 2.8 2.6 5.7 2.6 2.9 0 2.9-2.6 5.7-2.6 2.9 0 2.9 2.6 5.7 2.6m3.1-16.6h18.5v5H49.7m6.4-8.4L59.9 1h3.7l-3.8 12.1m-9.6 41h11.1L65 24.6" fill="none" stroke="#fff" stroke-width="2" stroke-linecap="round" stroke-linejoin="round" stroke-miterlimit="10"/></svg>