<svg xmlns="http://www.w3.org/2000/svg" xmlns:xlink="http://www.w3.org/1999/xlink" viewBox="0 0 148.41 116.09"><defs><style>.cls-1,.cls-10,.cls-4,.cls-6,.cls-8{fill:none;}.cls-2{clip-path:url(#clip-path);}.cls-3{fill:#00a728;}.cls-10,.cls-4,.cls-6{stroke:#fff;stroke-width:3.68px;}.cls-4{stroke-linecap:round;stroke-linejoin:round;}.cls-5{fill:#fff;}.cls-6{stroke-miterlimit:10;}.cls-7{clip-path:url(#clip-path-2);}.cls-8{stroke:#00a728;stroke-width:17.01px;}.cls-9{fill:#e90000;}</style><clipPath id="clip-path" transform="translate(-13.09 -4.39)"><polygon class="cls-1" points="32.02 0 2.67 20.46 0 67.61 15.12 116.53 64.05 114.75 120.98 44.48 120.98 18.68 93.4 0 32.02 0"/></clipPath><clipPath id="clip-path-2" transform="translate(-13.09 -4.39)"><rect class="cls-1" width="161.5" height="120.48"/></clipPath></defs><title>mostopi.svg</title><g id="レイヤー_2" data-name="レイヤー 2"><g id="レイヤー_1-2" data-name="レイヤー 1"><g class="cls-2"><path class="cls-3" d="M102.21,90.29H21.57c-4.68,0-6.32,3.79-6.32,8.47v.85a8.48,8.48,0,0,0,8.48,8.48H100a8.48,8.48,0,0,0,8.48-8.48v-.85c0-4.68-1.62-8.47-6.3-8.47" transform="translate(-13.09 -4.39)"/><path class="cls-4" d="M102.21,90.29H21.57c-4.68,0-6.32,3.79-6.32,8.47v.85a8.48,8.48,0,0,0,8.48,8.48H100a8.48,8.48,0,0,0,8.48-8.48v-.85C108.51,94.08,106.89,90.29,102.21,90.29Z" transform="translate(-13.09 -4.39)"/><path class="cls-3" d="M21,41.35h81.75c3.11,0,4.91-1.7,4.91-4.92,0-1.1-.1-.6-.28-1.69-2.51-15-21.92-28.51-45.5-28.51s-43,13.48-45.5,28.51h0c-.19,1.09-.28.59-.28,1.69,0,3.22,1.79,4.92,4.9,4.92" transform="translate(-13.09 -4.39)"/><path class="cls-4" d="M21,41.35h81.75c3.11,0,4.91-1.7,4.91-4.92,0-1.1-.1-.6-.28-1.69-2.51-15-21.92-28.51-45.5-28.51s-43,13.48-45.5,28.51h0c-.19,1.09-.28.59-.28,1.69C16.1,39.65,17.89,41.35,21,41.35Z" transform="translate(-13.09 -4.39)"/><path class="cls-5" d="M107.49,58.78a8.38,8.38,0,0,0-4.8,1.41,12.12,12.12,0,0,0-2.41,2.19c-.47.53-.87,1-1.24,1.45a6.6,6.6,0,0,1-1.45,1.33,3,3,0,0,1-.66.29,3.53,3.53,0,0,1-.89.11,3,3,0,0,1-1-.15,3.08,3.08,0,0,1-.66-.32,7,7,0,0,1-1.3-1.22c-.36-.41-.77-.91-1.23-1.44A11.9,11.9,0,0,0,89.07,60a8.47,8.47,0,0,0-2-.89,8.75,8.75,0,0,0-2.43-.32,8.64,8.64,0,0,0-2.79.43,8.28,8.28,0,0,0-2,1,11.85,11.85,0,0,0-2.41,2.19c-.48.53-.88,1-1.25,1.45a6.38,6.38,0,0,1-1.45,1.33,2.51,2.51,0,0,1-.65.28,3.11,3.11,0,0,1-.9.12,3,3,0,0,1-1-.15,3.08,3.08,0,0,1-.66-.32,6.94,6.94,0,0,1-1.29-1.22c-.37-.41-.77-.91-1.24-1.44A11.9,11.9,0,0,0,66.17,60a8.39,8.39,0,0,0-2-.89,8.75,8.75,0,0,0-2.43-.32,8.64,8.64,0,0,0-2.79.43,8.54,8.54,0,0,0-2,1,12.12,12.12,0,0,0-2.41,2.19c-.47.53-.87,1-1.24,1.45a6.6,6.6,0,0,1-1.45,1.33,2.51,2.51,0,0,1-.65.28,3.16,3.16,0,0,1-.9.12,3,3,0,0,1-1-.15,2.8,2.8,0,0,1-.65-.32,6.66,6.66,0,0,1-1.3-1.22c-.37-.41-.77-.91-1.24-1.44A11.9,11.9,0,0,0,43.28,60a8.3,8.3,0,0,0-2.05-.89A8.67,8.67,0,0,0,34,60.19a12.41,12.41,0,0,0-2.41,2.18c-.47.54-.87,1-1.24,1.46a6.6,6.6,0,0,1-1.45,1.33,2.51,2.51,0,0,1-.65.28,3.11,3.11,0,0,1-.9.12,3,3,0,0,1-1-.15,2.72,2.72,0,0,1-.66-.33,6.52,6.52,0,0,1-1.29-1.21c-.37-.41-.77-.91-1.24-1.44A11.9,11.9,0,0,0,20.39,60a8.39,8.39,0,0,0-2-.89,8.77,8.77,0,0,0-2.44-.32,2.83,2.83,0,1,0,0,5.65,3.28,3.28,0,0,1,1,.14,2.55,2.55,0,0,1,.66.33,6.84,6.84,0,0,1,1.3,1.21c.36.42.76.92,1.23,1.45A12.13,12.13,0,0,0,22.88,70a8.29,8.29,0,0,0,2.05.88,8.65,8.65,0,0,0,2.43.33,9,9,0,0,0,2.79-.43,8.66,8.66,0,0,0,2-1,12.76,12.76,0,0,0,2.41-2.19l1.25-1.46a6.53,6.53,0,0,1,1.44-1.32,2.76,2.76,0,0,1,.66-.29,3.12,3.12,0,0,1,.89-.11,3.3,3.3,0,0,1,1,.14,2.55,2.55,0,0,1,.66.33,6.84,6.84,0,0,1,1.3,1.21c.36.42.76.92,1.23,1.45A12.13,12.13,0,0,0,45.77,70a8.45,8.45,0,0,0,2,.88,8.7,8.7,0,0,0,2.43.33A9,9,0,0,0,53,70.78a8.66,8.66,0,0,0,2-1,12.76,12.76,0,0,0,2.41-2.19l1.25-1.46a6.53,6.53,0,0,1,1.44-1.32,2.76,2.76,0,0,1,.66-.29,3.15,3.15,0,0,1,.9-.11,3.4,3.4,0,0,1,1,.14,2.66,2.66,0,0,1,.65.33,6.84,6.84,0,0,1,1.3,1.21c.37.42.77.92,1.23,1.45A12,12,0,0,0,68.67,70a8.38,8.38,0,0,0,2,.88,8.75,8.75,0,0,0,2.43.33,8.92,8.92,0,0,0,2.79-.43,8.66,8.66,0,0,0,2-1,12.46,12.46,0,0,0,2.41-2.19l1.25-1.46A6.33,6.33,0,0,1,83,64.83a2.53,2.53,0,0,1,.65-.29,3.15,3.15,0,0,1,.9-.11,3.35,3.35,0,0,1,1,.14,2.49,2.49,0,0,1,.65.33,6.56,6.56,0,0,1,1.3,1.21c.37.42.77.92,1.24,1.45A12.13,12.13,0,0,0,91.56,70a8.29,8.29,0,0,0,2,.88,8.65,8.65,0,0,0,2.43.33,9,9,0,0,0,2.79-.43,9.08,9.08,0,0,0,2-1,12.76,12.76,0,0,0,2.41-2.19c.47-.53.88-1,1.24-1.46a6.77,6.77,0,0,1,1.45-1.32,2.6,2.6,0,0,1,.66-.29,3.15,3.15,0,0,1,.9-.11,2.83,2.83,0,0,0,0-5.65" transform="translate(-13.09 -4.39)"/><rect class="cls-6" x="6.48" y="71.23" width="81.84" height="9.34" rx="2.48" ry="2.48"/><rect class="cls-6" x="6.48" y="42.76" width="81.84" height="7.56" rx="1.87" ry="1.87"/></g><g class="cls-7"><path class="cls-8" d="M152,34.51,136.86,19.38a3.39,3.39,0,0,0-4.82,0L68.14,80.75a3.4,3.4,0,0,0-.86,1.42l-7.72,25.39a3.41,3.41,0,0,0,4.25,4.26l26.22-8,62-64.5A3.42,3.42,0,0,0,152,34.51Z" transform="translate(-13.09 -4.39)"/><path class="cls-9" d="M152,34.51,136.86,19.38a3.39,3.39,0,0,0-4.82,0L68.14,80.75a3.4,3.4,0,0,0-.86,1.42l-7.72,25.39a3.41,3.41,0,0,0,4.25,4.26l26.22-8,62-64.5a3.42,3.42,0,0,0,0-4.83" transform="translate(-13.09 -4.39)"/><path class="cls-3" d="M152,34.51,136.86,19.38a3.39,3.39,0,0,0-4.82,0L68.14,80.75a3.4,3.4,0,0,0-.86,1.42l-7.72,25.39a3.41,3.41,0,0,0,4.25,4.26l26.22-8,62-64.5a3.42,3.42,0,0,0,0-4.83" transform="translate(-13.09 -4.39)"/><path class="cls-10" d="M152,34.51,136.86,19.38a3.39,3.39,0,0,0-4.82,0L68.14,80.75a3.4,3.4,0,0,0-.86,1.42l-7.72,25.39a3.41,3.41,0,0,0,4.25,4.26l26.22-8,62-64.5A3.42,3.42,0,0,0,152,34.51Z" transform="translate(-13.09 -4.39)"/><polygon class="cls-5" points="57.92 99.01 54.89 95.98 59.35 81.34 67.94 85.96 72.57 94.55 57.92 99.01"/><path class="cls-3" d="M63.6,100.07l-2.29,8s-.38,2.67,2.29,1.78S85,103.63,85,103.63H70.72l-2.67-3.56Z" transform="translate(-13.09 -4.39)"/><line class="cls-4" x1="48.2" y1="107.43" x2="94.1" y2="107.43"/></g></g></g></svg>