<svg xmlns="http://www.w3.org/2000/svg" xmlns:xlink="http://www.w3.org/1999/xlink" viewBox="0 0 123.48 94.41"><defs><style>.cls-1,.cls-3,.cls-4,.cls-5,.cls-7{fill:none;}.cls-2{clip-path:url(#clip-path);}.cls-3,.cls-5,.cls-7{stroke:#fff;stroke-width:3.68px;}.cls-3{stroke-miterlimit:10;}.cls-4{stroke:#00a728;stroke-width:11.34px;}.cls-4,.cls-7{stroke-linejoin:round;}.cls-6{fill:#00a728;}.cls-7{stroke-linecap:round;}</style><clipPath id="clip-path" transform="translate(0)"><rect class="cls-1" width="123.48" height="94.41"/></clipPath></defs><title>omoi.svg</title><g id="レイヤー_2" data-name="レイヤー 2"><g id="レイヤー_1-2" data-name="レイヤー 1"><g class="cls-2"><path class="cls-3" d="M90.35,14.09C92.92,5.93,99.32,2,106.5,2c8.59,0,15.14,7.08,15.14,15.63,0,10.31-5.7,17.94-11.55,24.94C104.47,49.28,93.24,61,90.35,63.83h-.16C87.3,61,76.14,49.28,70.52,42.58,64.67,35.58,59,28,59,17.64A15.36,15.36,0,0,1,74.19,2c7.1,0,13.42,3.92,16,12.08Z" transform="translate(0)"/><path class="cls-4" d="M39.28,55.51c11.27,0,25-6.32,30.58-17.72,4.66-9.45,5-25.33-6.37-30.7A14.11,14.11,0,0,0,49.3,8.17c-3.66,2.45-7.2,4.12-10,4.12s-6.35-1.67-10-4.12A14.11,14.11,0,0,0,15.08,7.09c-11.35,5.37-11,21.25-6.37,30.7C14.33,49.19,28,55.51,39.29,55.51Z" transform="translate(0)"/><path class="cls-5" d="M39.28,55.51c11.27,0,25-6.32,30.58-17.72,4.66-9.45,5-25.33-6.37-30.7A14.11,14.11,0,0,0,49.3,8.17c-3.66,2.45-7.2,4.12-10,4.12s-6.35-1.67-10-4.12A14.11,14.11,0,0,0,15.08,7.09c-11.35,5.37-11,21.25-6.37,30.7C14.33,49.19,28,55.51,39.29,55.51Z" transform="translate(0)"/><path class="cls-6" d="M23,86H10a4,4,0,0,1-4-4V54.23A3.23,3.23,0,0,1,9.2,51H23a4,4,0,0,1,4,4V82a4,4,0,0,1-4,4" transform="translate(0)"/><path class="cls-3" d="M23,86H10a4,4,0,0,1-4-4V54.23A3.23,3.23,0,0,1,9.2,51H23a4,4,0,0,1,4,4V82A4,4,0,0,1,23,86Z" transform="translate(0)"/><path class="cls-6" d="M69,94.41a12.81,12.81,0,0,1-2.31-.21L36.5,88.72a31.64,31.64,0,0,1-5.12-1.26L28,86.32V49.74l2.49-1.45a40.81,40.81,0,0,1,20.79-5.15H76.48A11.32,11.32,0,0,1,87.79,54.45a10.56,10.56,0,0,1-.1,1.49c7.7-5.13,12.87-8.68,14-9.63l.09-.07.14-.1a15,15,0,0,1,8.72-3,10.89,10.89,0,0,1,8.16,3.43c4.45,4.85,4.25,11.52-.49,15.86l-.16.15c-3,2.45-37.75,26.67-41.71,29.42A12.91,12.91,0,0,1,69,94.41" transform="translate(0)"/><path class="cls-6" d="M115.12,50c-2.49-2.72-7.13-2.14-10.23.15-2.83,2.37-22.21,15.1-22.21,15.1H59.13l-.08,0a2.25,2.25,0,1,1,.15-4.49l-.07,0H76.48a6.31,6.31,0,1,0,0-12.62H51.25c-8,0-14,2-18.28,4.48v30.1a28.33,28.33,0,0,0,4.42,1.08l30.17,5.48a8,8,0,0,0,6-1.34s38.5-26.77,41.35-29.14,2.68-6.09.19-8.8" transform="translate(0)"/><path class="cls-7" d="M115.12,50c-2.49-2.72-7.13-2.14-10.23.15-2.83,2.37-22.21,15.1-22.21,15.1H59.13l-.08,0a2.25,2.25,0,1,1,.15-4.49l-.07,0H76.48a6.31,6.31,0,1,0,0-12.62H51.25c-8,0-14,2-18.28,4.48v30.1a28.33,28.33,0,0,0,4.42,1.08l30.17,5.48a8,8,0,0,0,6-1.34s38.5-26.77,41.35-29.14S117.61,52.71,115.12,50Z" transform="translate(0)"/></g></g></g></svg>