<svg xmlns="http://www.w3.org/2000/svg" xmlns:xlink="http://www.w3.org/1999/xlink" viewBox="0 0 133.14 112.34"><defs><style>.cls-1,.cls-3,.cls-4,.cls-6{fill:none;}.cls-2{clip-path:url(#clip-path);}.cls-3,.cls-6{stroke:#fff;stroke-width:3.68px;}.cls-3{stroke-miterlimit:10;}.cls-4{stroke:#00a728;stroke-width:11.34px;}.cls-5{fill:#00a728;}</style><clipPath id="clip-path" transform="translate(0 0)"><rect class="cls-1" width="133.13" height="112.34"/></clipPath></defs><title>order.svg</title><g id="レイヤー_2" data-name="レイヤー 2"><g id="レイヤー_1-2" data-name="レイヤー 1"><g class="cls-2"><rect class="cls-3" x="26.29" y="10.84" width="96" height="62.59" rx="3" ry="3"/><path class="cls-3" d="M127.29,1.84h-106a4,4,0,0,0-4,4V78.43a4,4,0,0,0,4,4h44.5v16h-15a2,2,0,0,0-2,2v3a2,2,0,0,0,2,2h47a2,2,0,0,0,2-2v-3a2,2,0,0,0-2-2h-15v-16h44.5a4,4,0,0,0,4-4V5.84A4,4,0,0,0,127.29,1.84Z" transform="translate(0 0)"/><path class="cls-4" d="M28.92,106.54l-20.26-5.3A4,4,0,0,1,5.8,96.36L18.4,48.1a4,4,0,0,1,4.89-2.86l20.26,5.3a4,4,0,0,1,2.85,4.88L33.8,103.68A4,4,0,0,1,28.92,106.54Z" transform="translate(0 0)"/><path class="cls-5" d="M28.92,106.54l-20.26-5.3A4,4,0,0,1,5.8,96.36L18.4,48.1a4,4,0,0,1,4.89-2.86l20.26,5.3a4,4,0,0,1,2.85,4.88L33.8,103.68a4,4,0,0,1-4.88,2.86" transform="translate(0 0)"/><path class="cls-6" d="M28.92,106.54l-20.26-5.3A4,4,0,0,1,5.8,96.36L18.4,48.1a4,4,0,0,1,4.89-2.86l20.26,5.3a4,4,0,0,1,2.85,4.88L33.8,103.68A4,4,0,0,1,28.92,106.54Z" transform="translate(0 0)"/></g></g></g></svg>