<svg xmlns="http://www.w3.org/2000/svg" viewBox="0 0 11.4 15.6"><style/><g id="レイヤー_1のコピー"><path d="M.5 15.6c-.3 0-.5-.3-.5-.5 0-.1.2-1.9.4-2.9C1 9.8 1.7 9.5 2.9 9c.6-.2.7-.3.7-.4 0 0 0-.2-.4-.8-1-1.2-1.5-3.6-.8-5.3C3.1.7 4.1 0 5.7 0c.3 0 .5.2.5.5S6 1 5.7 1c-1.2 0-1.8.5-2.4 1.9-.6 1.3-.1 3.3.7 4.3.4.5.8 1.1.6 1.7-.2.6-.8.8-1.3 1-.9.4-1.3.5-1.9 2.5-.2.9-.4 2.8-.4 2.8 0 .2-.2.4-.5.4z"/><path d="M10.9 15.6H.5c-.3 0-.5-.2-.5-.5s.2-.5.5-.5h9.9c-.1-.6-.2-1.6-.4-2.1-.5-2-.9-2.2-1.9-2.5-.4-.2-1.1-.5-1.3-1.1-.1-.6.2-1.2.6-1.7.8-1 1.2-3 .7-4.4C7.5 1.5 6.9 1 5.7 1c-.3 0-.5-.2-.5-.5s.2-.5.5-.5C7.3 0 8.3.7 9 2.5c.7 1.7.1 4.1-.8 5.4-.4.6-.4.7-.4.7 0 .1.2.2.7.4 1.2.4 1.8.8 2.5 3.2.2.9.4 2.8.4 2.9 0 .1 0 .3-.1.4s-.2.1-.4.1z"/></g></svg>