<svg xmlns="http://www.w3.org/2000/svg" width="388.219" height="29.5" viewBox="0 0 388.219 29.5">
  <defs>
    <style>
      .cls-1 {
        fill: #212529;
        fill-rule: evenodd;
      }
    </style>
  </defs>
  <path id="logo.svg" class="cls-1" d="M12.395,16.332v8.135c0,4.32,1.548,5.435,7.7,5.435,1.656,0,4.284-.108,5.579-0.216,2.124-.18,2.3-0.18,2.664-0.18h0.4v-2.34a12.876,12.876,0,0,1-3.06.54c-2.124.18-4.067,0.288-5.147,0.288a15.2,15.2,0,0,1-4.644-.5c-1.116-.468-1.368-1.116-1.368-3.744V16.332H25.749c1.728,0,2.808.036,4,.144V14.244a24.245,24.245,0,0,1-4.031.216H14.519V6.541h8.963a28.154,28.154,0,0,1,4,.18v-2.3a18.928,18.928,0,0,1-4.032.252H6.851a18.743,18.743,0,0,1-4-.252v2.3a27.843,27.843,0,0,1,4-.18h5.543V14.46H4.836a24.726,24.726,0,0,1-4.067-.216v2.232c1.224-.108,2.268-0.144,4.031-0.144h7.6Zm53.17,12.346A88.974,88.974,0,0,0,53.506,17.7,47.181,47.181,0,0,0,59.481,7.585a5.953,5.953,0,0,1,.972-1.692l-1.3-1.332a6.725,6.725,0,0,1-2.088.252l-12.85.144h-0.9a15.476,15.476,0,0,1-2.808-.18l0.036,2.448a29.62,29.62,0,0,1,3.636-.252L56.6,6.793a4.493,4.493,0,0,0,.756-0.072c-0.144.288-.216,0.5-0.288,0.648A40.018,40.018,0,0,1,44,24.035,29.159,29.159,0,0,1,36.7,28.21a6.331,6.331,0,0,1,1.476,1.944,43.811,43.811,0,0,0,7.091-4.391,39.106,39.106,0,0,0,6.911-6.443A69.972,69.972,0,0,1,63.837,30.55ZM89.074,6.361a11.249,11.249,0,0,1,4.319.864A9.709,9.709,0,0,1,99.4,16.548a11,11,0,0,1-5.759,9.863A20.505,20.505,0,0,1,87.023,28.5a4.663,4.663,0,0,1,1.044,2.016,25.26,25.26,0,0,0,5.939-1.98,12.911,12.911,0,0,0,7.523-11.951,11.692,11.692,0,0,0-3.492-8.6,13.526,13.526,0,0,0-9.611-3.456c-4.751,0-8.639,1.584-11.447,4.751a14.661,14.661,0,0,0-3.743,9.755c0,4.823,2.448,8.459,5.687,8.459,2.52,0,4.607-2.16,6.659-6.947A53.152,53.152,0,0,0,89.074,6.361ZM86.951,6.4A51.175,51.175,0,0,1,83.6,20.039c-1.62,3.636-3.132,5.363-4.715,5.363-2.052,0-3.636-2.772-3.636-6.335A12.66,12.66,0,0,1,81.407,8.053,12.369,12.369,0,0,1,86.951,6.4Zm39.384,0.54a33.429,33.429,0,0,1-7.415,1.584V4.741a18.97,18.97,0,0,1,.18-3.168h-2.3a22.2,22.2,0,0,1,.18,3.24V8.7l-3.419.108a19.619,19.619,0,0,1-3.672-.252V10.5h1.4c0.4,0.036,1.548.036,2.124,0.036a19.911,19.911,0,0,0,2.195-.072c1.08-.072,1.08-0.072,1.368-0.072V17.52c-4.931,2.16-7.775,4.9-7.775,7.487a4.19,4.19,0,0,0,1.548,3.276,9.214,9.214,0,0,0,5.723,2.232c1.692,0,2.448-.828,2.448-2.7V18.744a22.887,22.887,0,0,1,7.847-1.512c4.931,0,7.991,2.268,7.991,5.9a5.083,5.083,0,0,1-5.111,5.363c-2.772,0-3.96-1.62-3.96-5.435,0-.468,0-0.756.036-1.44a4.781,4.781,0,0,1-1.944.756v0.432a12.488,12.488,0,0,0,.684,4.391,5.2,5.2,0,0,0,5.148,3.2,7.107,7.107,0,0,0,7.163-7.235c0-4.643-3.924-7.667-9.863-7.667a25.5,25.5,0,0,0-7.991,1.368V10.249A57.149,57.149,0,0,0,125.4,9.133c0.5-.108.612-0.144,1.044-0.216ZM117.011,26.7a3.523,3.523,0,0,1-.108,1.4,0.665,0.665,0,0,1-.72.432,6.942,6.942,0,0,1-2.879-.792c-1.44-.756-2.2-1.692-2.2-2.628,0-1.8,2.124-3.852,5.9-5.651V26.7Zm21.2-15.226a29.767,29.767,0,0,0-7.272-6.7L129.43,5.929a28.978,28.978,0,0,1,7.307,6.875ZM146.5,5.137a6.386,6.386,0,0,1,.072,1.152c0.18,8.171.5,12.058,1.224,15.046,1.152,4.715,3.347,7.775,5.651,7.775,2.376,0,3.924-2.268,5.615-8.423A8.539,8.539,0,0,1,157.331,19a24.819,24.819,0,0,1-1.836,6.083c-0.576,1.224-1.188,1.836-1.908,1.836a2.458,2.458,0,0,1-1.836-1.3c-1.259-1.728-2.159-4.679-2.555-8.315-0.252-2.3-.432-5.867-0.432-8.171a27.463,27.463,0,0,1,.216-3.96Zm18.25,2.916a31.468,31.468,0,0,1,7.487,17.386l2.052-.864a33.407,33.407,0,0,0-2.7-9.431,32.749,32.749,0,0,0-5.075-7.991Zm21.278-5.507a15.229,15.229,0,0,1,.108,1.692c0,0.432,0,1.3-.036,2.412-0.324,12.059-.324,12.274-0.324,14.578,0,3.779.5,5.651,1.871,7.271,1.44,1.656,3.6,2.484,6.552,2.484a12.513,12.513,0,0,0,10.042-4.463c1.548-1.8,2.592-3.887,3.888-7.883a8.229,8.229,0,0,1-2.088-1.512,18.533,18.533,0,0,1-1.836,5.543,10.6,10.6,0,0,1-9.646,6.3c-2.7,0-4.572-.792-5.58-2.34-0.828-1.26-1.08-2.628-1.08-5.831,0-2.376.252-11.878,0.36-14.11a25.372,25.372,0,0,1,.36-4.139h-2.591Zm33.012,8.639c0.54-.072.72-0.072,1.332-0.108a95.368,95.368,0,0,0,12.85-.936c0.18,0.4.216,0.432,0.612,1.188a39.068,39.068,0,0,0,4.572,7.379l-0.072.072a19.427,19.427,0,0,0-7.524-1.332,14.455,14.455,0,0,0-8.638,2.34,5.945,5.945,0,0,0-2.412,4.571,5.7,5.7,0,0,0,1.512,3.852c1.619,1.728,4.859,2.7,9.143,2.7a28.856,28.856,0,0,0,10.4-1.944l-0.324-2.3a23.161,23.161,0,0,1-10.042,2.3c-3.132,0-5.76-.648-7.164-1.728a3.734,3.734,0,0,1-1.439-2.952,4.333,4.333,0,0,1,2.051-3.528c1.656-1.044,3.888-1.548,7.055-1.548a17.71,17.71,0,0,1,6.372.972,7.067,7.067,0,0,1,2.483,1.44l1.944-1.26a58.227,58.227,0,0,1-6.515-10.547c2.664-.5,4.1-0.828,6.263-1.4a15.035,15.035,0,0,1,2.052-.5l-0.36-2.124a40.552,40.552,0,0,1-8.675,2.34c-0.4-.864-0.792-1.836-1.368-3.312a12.964,12.964,0,0,1-1.08-3.312l-2.375.36a15.759,15.759,0,0,1,.936,2.052c0.5,1.332.5,1.332,1.871,4.5a84.94,84.94,0,0,1-10.87.792,14.694,14.694,0,0,1-2.7-.18Zm50.038-4.823a11.251,11.251,0,0,1,4.32.864,9.71,9.71,0,0,1,6.011,9.323,11,11,0,0,1-5.759,9.863,20.511,20.511,0,0,1-6.624,2.088,4.664,4.664,0,0,1,1.044,2.016,25.266,25.266,0,0,0,5.94-1.98,12.911,12.911,0,0,0,7.523-11.951,11.692,11.692,0,0,0-3.492-8.6,13.526,13.526,0,0,0-9.611-3.456c-4.751,0-8.639,1.584-11.446,4.751a14.66,14.66,0,0,0-3.744,9.755c0,4.823,2.448,8.459,5.687,8.459,2.52,0,4.608-2.16,6.66-6.947A53.186,53.186,0,0,0,269.074,6.361ZM266.95,6.4A51.13,51.13,0,0,1,263.6,20.039c-1.62,3.636-3.132,5.363-4.716,5.363-2.051,0-3.635-2.772-3.635-6.335a12.661,12.661,0,0,1,6.155-11.015A12.372,12.372,0,0,1,266.95,6.4ZM289.56,10.1c0.5-.036.5-0.036,0.576-0.036h0.216c1.044,0.036,1.872.072,2.628,0.072,1.008,0,2.051-.036,2.951-0.072-1.547,7.883-4.1,15.334-6.839,20.085l2.124,0.972a85.572,85.572,0,0,0,4.175-10.763c0.972-3.276,2.052-7.451,2.592-10.439a48.473,48.473,0,0,0,6.083-.864c0.684-.144.684-0.144,0.972-0.216l-0.18-2.016a29.8,29.8,0,0,1-6.515,1.26c0.216-1.224.324-1.872,0.5-2.916A26.484,26.484,0,0,1,299.5,1.79L297.119,1.5a37.936,37.936,0,0,1-.864,6.731C295.139,8.3,294.492,8.3,293.7,8.3a21.1,21.1,0,0,1-4.14-.288V10.1Zm26.853,2.016c-2.592-.108-3.132-0.144-3.888-0.144a37.777,37.777,0,0,0-9.359,1.224l0.252,1.98a30.387,30.387,0,0,1,8.891-1.3,28.85,28.85,0,0,1,4.1.288V12.12Zm-12.851,7.811c-1.655,1.944-2.339,3.42-2.339,5a4.515,4.515,0,0,0,2.339,3.96,13.608,13.608,0,0,0,6.408,1.224,39.945,39.945,0,0,0,7.883-.864L317.6,26.987a24.765,24.765,0,0,1-7.847,1.224c-4.284,0-6.552-1.188-6.552-3.492,0-1.224.612-2.376,2.016-3.888ZM329.592,3.7a7.047,7.047,0,0,1,.468,1.836c0.324,1.98.647,3.636,1.007,5.147a13.014,13.014,0,0,0-3.635,3.672,12.237,12.237,0,0,0-2.088,6.839c0,3.96,1.98,6.659,4.86,6.659,1.979,0,3.923-1.224,6.155-3.887,2.771-3.24,5.435-8.6,7.091-14.254,5.183,1.008,8.027,4.031,8.027,8.531,0,4.067-2.232,7.127-6.587,9.071a17.829,17.829,0,0,1-5.8,1.584,5.2,5.2,0,0,1,1.188,1.98,24.326,24.326,0,0,0,6.048-1.944c4.643-2.268,7.163-5.975,7.163-10.619,0-5.4-3.636-9.323-9.611-10.331,0.144-.576.18-0.756,0.432-1.872a29.073,29.073,0,0,1,.972-3.672l-2.232-.468A42.6,42.6,0,0,1,341.938,7.8h-1.26a17.871,17.871,0,0,0-7.919,1.836,49.8,49.8,0,0,1-1.008-6.371Zm1.943,8.855A51.5,51.5,0,0,0,335.027,22.6c-1.764,2.16-3.384,3.312-4.715,3.312-1.872,0-3.06-1.908-3.06-4.859A11.152,11.152,0,0,1,328.8,15.72,10.646,10.646,0,0,1,331.535,12.552Zm4.788,8.567a2.268,2.268,0,0,0-.216-0.72,51.963,51.963,0,0,1-2.952-8.963,14.3,14.3,0,0,1,7.235-1.908c0.4,0,.5,0,1.08.036A45.08,45.08,0,0,1,337.043,19.9a5.907,5.907,0,0,0-.648,1.224h-0.072ZM364.692,2.4a15.574,15.574,0,0,1-.54,2.736,58.534,58.534,0,0,0-1.62,14.254,49.076,49.076,0,0,0,.936,10.079c0.108,0.648.144,0.828,0.216,1.368l2.16-.216a2.248,2.248,0,0,1-.036-0.432c0-1.836,1.331-6.263,2.879-9.611l-1.476-.684a28.211,28.211,0,0,0-2.339,7.379h-0.108a12.208,12.208,0,0,0-.036-1.224c-0.144-2.664-.216-5.147-0.216-6.767a53.938,53.938,0,0,1,1.044-10.907A38.1,38.1,0,0,1,367.1,2.834Zm7.127,6.407a31.214,31.214,0,0,0,5.687.432,53.278,53.278,0,0,0,9.287-.72c0.432-.072.5-0.072,0.792-0.108l-0.144-2.124A34.786,34.786,0,0,1,377.9,7.333a23.506,23.506,0,0,1-6.047-.576Zm2.7,7.343c-2.232,2.52-3.132,4.391-3.132,6.479a5.088,5.088,0,0,0,1.08,3.312c1.512,1.8,4.031,2.628,8.027,2.628a39.228,39.228,0,0,0,7.415-.72c0.648-.144.756-0.144,1.188-0.216l-0.324-2.3a22.755,22.755,0,0,1-8.171,1.26c-4.788,0-7.235-1.368-7.235-4.1,0-1.692.828-3.312,2.735-5.4Z" transform="translate(-0.781 -1.5)"/>
</svg>
