<svg xmlns="http://www.w3.org/2000/svg" xmlns:xlink="http://www.w3.org/1999/xlink" viewBox="0 0 164.29 125.88"><defs><style>.cls-1,.cls-6,.cls-7{fill:none;}.cls-2{clip-path:url(#clip-path);}.cls-3{fill:#fff;}.cls-4{fill:#e90000;}.cls-5{clip-path:url(#clip-path-2);}.cls-6{stroke:#fff;stroke-width:14px;}.cls-7{stroke:#e90000;stroke-linecap:round;stroke-linejoin:round;stroke-width:5px;}</style><clipPath id="clip-path" transform="translate(-14.71 -7)"><polygon class="cls-1" points="36 0 3 23 0 76 17 131 72 129 136 50 136 21 105 0 36 0"/></clipPath><clipPath id="clip-path-2" transform="translate(-14.71 -7)"><rect class="cls-1" width="179" height="132.88"/></clipPath></defs><title>mostopi.svg</title><g id="レイヤー_2" data-name="レイヤー 2"><g id="レイヤー_1-2" data-name="レイヤー 1"><g class="cls-2"><path class="cls-3" d="M26.67,118.51A6.54,6.54,0,0,1,20.14,112v-1c0-6.53,3-6.53,4.11-6.53H114.9c1.22,0,4.08,0,4.08,6.53v1a6.54,6.54,0,0,1-6.53,6.53Z" transform="translate(-14.71 -7)"/><path class="cls-4" d="M23.8,107.49h0m91.1,0a2.12,2.12,0,0,1,.48,0A7.27,7.27,0,0,1,116,111v1a3.53,3.53,0,0,1-3.53,3.53H26.67A3.54,3.54,0,0,1,23.14,112v-1a7,7,0,0,1,.62-3.49,2.1,2.1,0,0,1,.49,0H114.9m0-6H24.25c-5.27,0-7.11,4.26-7.11,9.53v1a9.53,9.53,0,0,0,9.53,9.53h85.78A9.52,9.52,0,0,0,122,112v-1c0-5.27-1.81-9.53-7.08-9.53" transform="translate(-14.71 -7)"/><path class="cls-3" d="M23.61,43.48c-1.9,0-2.51-.62-2.51-2.53v-.23a7.15,7.15,0,0,0,.27-1.17C23.75,25.34,42.85,10,69.56,10s45.82,15.34,48.19,29.55a7.46,7.46,0,0,0,.28,1.17V41c0,1.91-.61,2.53-2.52,2.53Z" transform="translate(-14.71 -7)"/><path class="cls-4" d="M69.56,13c11.42,0,22.5,3.1,31.2,8.73,7.82,5.06,12.94,11.73,14,18.32,0,.15.06.3.08.43H24.25c0-.08,0-.17.05-.25l0-.19c1.1-6.58,6.22-13.25,14-18.31C47.06,16.1,58.15,13,69.56,13m0-6C43.05,7,21.24,22.16,18.41,39.06h0c-.2,1.22-.31.66-.31,1.89,0,3.62,2,5.53,5.51,5.53h91.9c3.5,0,5.52-1.91,5.52-5.53,0-1.24-.11-.67-.32-1.9C117.89,22.16,96.07,7,69.56,7" transform="translate(-14.71 -7)"/><path class="cls-4" d="M120.83,66.07a9.93,9.93,0,0,0-3.14.49,9.81,9.81,0,0,0-2.25,1.1,14,14,0,0,0-2.7,2.46c-.53.6-1,1.16-1.41,1.64a7.41,7.41,0,0,1-1.62,1.49,2.86,2.86,0,0,1-.74.32,3.49,3.49,0,0,1-1,.13,3.36,3.36,0,0,1-1.13-.17,3,3,0,0,1-.74-.36,7.64,7.64,0,0,1-1.46-1.37c-.41-.46-.86-1-1.39-1.62a13.38,13.38,0,0,0-3.11-2.74,9.32,9.32,0,0,0-2.31-1,10.25,10.25,0,0,0-5.86.12,9.61,9.61,0,0,0-2.25,1.1A14,14,0,0,0,87,70.12c-.54.6-1,1.16-1.41,1.64A7.41,7.41,0,0,1,84,73.25a2.86,2.86,0,0,1-.74.32,3.91,3.91,0,0,1-2.14,0,3,3,0,0,1-.74-.36A7.63,7.63,0,0,1,78.9,71.8c-.42-.46-.87-1-1.39-1.62a13.66,13.66,0,0,0-3.12-2.74,9.41,9.41,0,0,0-2.3-1,10.06,10.06,0,0,0-2.73-.37,9.93,9.93,0,0,0-3.14.49A9.81,9.81,0,0,0,64,67.66a14,14,0,0,0-2.71,2.46c-.53.6-1,1.16-1.4,1.64a7.21,7.21,0,0,1-1.63,1.49,2.8,2.8,0,0,1-.73.32,3.94,3.94,0,0,1-2.15,0,2.75,2.75,0,0,1-.73-.36,7.64,7.64,0,0,1-1.46-1.37c-.41-.46-.86-1-1.39-1.62a13.59,13.59,0,0,0-3.11-2.74,9.58,9.58,0,0,0-2.3-1,10.19,10.19,0,0,0-2.74-.37,10,10,0,0,0-3.14.49,9.73,9.73,0,0,0-2.24,1.1,14,14,0,0,0-2.71,2.46c-.53.6-1,1.16-1.4,1.64a7.65,7.65,0,0,1-1.63,1.49,3.25,3.25,0,0,1-.74.32,3.91,3.91,0,0,1-2.14,0,3,3,0,0,1-.74-.36,7.94,7.94,0,0,1-1.45-1.37c-.42-.46-.86-1-1.39-1.62a13.59,13.59,0,0,0-3.11-2.74,9.48,9.48,0,0,0-2.31-1,10.06,10.06,0,0,0-2.73-.37,3.18,3.18,0,1,0,0,6.36,3.8,3.8,0,0,1,1.14.16,3.14,3.14,0,0,1,.73.37,7.53,7.53,0,0,1,1.46,1.36c.41.47.86,1,1.39,1.63a13.59,13.59,0,0,0,3.11,2.74,9.58,9.58,0,0,0,2.3,1,10.08,10.08,0,0,0,2.74.36,9.92,9.92,0,0,0,3.13-.49,9.24,9.24,0,0,0,2.25-1.1A13.71,13.71,0,0,0,38.85,76c.53-.61,1-1.17,1.4-1.64a7.18,7.18,0,0,1,1.63-1.49,2.74,2.74,0,0,1,.74-.33,3.79,3.79,0,0,1,1-.12,3.75,3.75,0,0,1,1.14.16,3.41,3.41,0,0,1,.74.37A7.83,7.83,0,0,1,47,74.32c.42.47.87,1,1.39,1.63a13.45,13.45,0,0,0,3.12,2.74,9.24,9.24,0,0,0,2.3,1,10.06,10.06,0,0,0,2.73.36,9.93,9.93,0,0,0,3.14-.49,9.42,9.42,0,0,0,2.25-1.1A13.35,13.35,0,0,0,64.58,76c.54-.61,1-1.17,1.41-1.64a7.17,7.17,0,0,1,1.62-1.49,2.89,2.89,0,0,1,.74-.33,3.87,3.87,0,0,1,1-.12,3.72,3.72,0,0,1,1.13.16,3.41,3.41,0,0,1,.74.37,7.53,7.53,0,0,1,1.46,1.36c.41.47.86,1,1.39,1.63a13.38,13.38,0,0,0,3.11,2.74,9.41,9.41,0,0,0,2.3,1,10.08,10.08,0,0,0,2.74.36,9.92,9.92,0,0,0,3.13-.49,9.24,9.24,0,0,0,2.25-1.1A13.71,13.71,0,0,0,90.32,76c.53-.61,1-1.17,1.4-1.64a7,7,0,0,1,1.63-1.49,3,3,0,0,1,.73-.33,3.93,3.93,0,0,1,1-.12,3.8,3.8,0,0,1,1.14.16A3.41,3.41,0,0,1,97,73a7.52,7.52,0,0,1,1.45,1.36c.42.47.87,1,1.39,1.63a13.66,13.66,0,0,0,3.12,2.74,9.41,9.41,0,0,0,2.3,1,10.06,10.06,0,0,0,2.73.36,9.93,9.93,0,0,0,3.14-.49,9.06,9.06,0,0,0,2.25-1.1A13.71,13.71,0,0,0,116.06,76c.53-.6,1-1.16,1.4-1.64a7,7,0,0,1,1.63-1.49,2.39,2.39,0,0,1,.73-.32,3.49,3.49,0,0,1,1-.13,3.18,3.18,0,0,0,0-6.36" transform="translate(-14.71 -7)"/><path class="cls-4" d="M111.52,97h-87A2.48,2.48,0,0,1,22,94.52v-9A2.48,2.48,0,0,1,24.48,83h87A2.48,2.48,0,0,1,114,85.48v9A2.48,2.48,0,0,1,111.52,97" transform="translate(-14.71 -7)"/><path class="cls-4" d="M112.13,63H23.87A1.87,1.87,0,0,1,22,61.13V52.87A1.87,1.87,0,0,1,23.87,51h88.26A1.87,1.87,0,0,1,114,52.87v8.26A1.87,1.87,0,0,1,112.13,63" transform="translate(-14.71 -7)"/></g><g class="cls-5"><path class="cls-6" d="M170.88,38.8l-17-17a3.84,3.84,0,0,0-5.43,0l-71.83,69a3.82,3.82,0,0,0-1,1.6L67,120.92a3.84,3.84,0,0,0,4.79,4.79l29.47-9,69.67-72.51A3.84,3.84,0,0,0,170.88,38.8Zm-91,77.44-3.41-3.41,5-16.46,9.66,5.19,5.2,9.66Z" transform="translate(-14.71 -7)"/><path class="cls-4" d="M170.88,38.8l-17-17a3.84,3.84,0,0,0-5.43,0l-71.83,69a3.82,3.82,0,0,0-1,1.6L67,120.92a3.84,3.84,0,0,0,4.79,4.79l29.47-9,69.67-72.51a3.84,3.84,0,0,0,0-5.43m-91,77.44-3.41-3.41,5-16.46,9.66,5.19,5.2,9.66Z" transform="translate(-14.71 -7)"/><path class="cls-4" d="M170.88,38.8l-17-17a3.84,3.84,0,0,0-5.43,0l-71.83,69a3.82,3.82,0,0,0-1,1.6L67,120.92a3.84,3.84,0,0,0,4.79,4.79l29.47-9,69.67-72.51a3.84,3.84,0,0,0,0-5.43m-91,77.44-3.41-3.41,5-16.46,9.66,5.19,5.2,9.66Z" transform="translate(-14.71 -7)"/><line class="cls-7" x1="56.79" y1="116.5" x2="115.79" y2="116.5"/></g></g></g></svg>