<svg xmlns="http://www.w3.org/2000/svg" viewBox="0 0 113.5 105.9"><defs><style>.cls-1{fill:#e90000;}.cls-2{fill:#fff;stroke:#e90000;stroke-linecap:round;stroke-linejoin:round;stroke-width:5px;}</style></defs><title>quality.svg</title><g id="レイヤー_2" data-name="レイヤー 2"><g id="レイヤー_1-2" data-name="レイヤー 1"><path class="cls-1" d="M61.09,17.56C65.36,5.71,76,0,87.91,0c14.26,0,25.14,10.29,25.14,22.71,0,15-9.46,26.06-19.18,36.24-9.33,9.74-28,26.74-32.78,30.88h-.26C56,85.69,37.5,68.69,28.18,59,18.46,48.77,9,37.7,9,22.71,9,10.07,20.27,0,34.26,0c11.8,0,22.29,5.71,26.57,17.56Z"/><path class="cls-2" d="M109.15,64c-2.49-2.71-7.13-2.14-10.23.16-2.84,2.36-22.22,15.1-22.22,15.1H53.15l-.07,0a2.25,2.25,0,1,1,.15-4.49l-.08,0H70.51a6.31,6.31,0,1,0,0-12.62H45.27c-15.77,0-23.68,7.71-26,11.57C17.74,76,10.8,94.51,31.42,97.79l30.17,5.48a8,8,0,0,0,6-1.33S106.11,75.16,109,72.8,111.63,66.7,109.15,64Z"/><path class="cls-1" d="M3.22,65H17a4,4,0,0,1,4,4V96a4,4,0,0,1-4,4H4a4,4,0,0,1-4-4V68.22A3.22,3.22,0,0,1,3.22,65Z"/></g></g></svg>